<?xml version="1.0" standalone="no"?>
<!DOCTYPE svg PUBLIC "-//W3C//DTD SVG 20010904//EN"
 "http://www.w3.org/TR/2001/REC-SVG-20010904/DTD/svg10.dtd">
<svg version="1.1" xmlns="http://www.w3.org/2000/svg"
 width="500.000000pt" height="90.000000pt" viewBox="0 0 500.000000 90.000000">
<g transform="translate(0.000000,90.000000) scale(0.100000,-0.100000)"
fill="#4c5259" stroke="#4c5259">
<path d="M3272 870 c-40 -25 -62 -73 -62 -135 l0 -45 -40 0 -40 0 0 -45 0 -45
40 0 40 0 0 -139 c0 -77 -3 -146 -6 -155 -3 -9 -17 -16 -30 -16 -21 0 -24 -4
-24 -40 l0 -40 125 0 125 0 0 40 c0 39 -1 40 -35 40 l-35 0 0 155 0 155 65 0
65 0 0 45 0 45 -65 0 -65 0 0 39 c0 69 18 77 134 59 14 -2 22 7 32 34 12 36
12 39 -9 50 -12 6 -58 13 -102 15 -68 4 -85 1 -113 -17z"/>
<path d="M4326 869 c-52 -41 -22 -129 45 -129 42 0 79 35 79 75 0 38 -37 75
-75 75 -12 0 -34 -9 -49 -21z"/>
<path d="M3990 841 c0 -33 4 -40 23 -43 l22 -3 0 -250 0 -250 -22 -3 c-19 -3
-23 -10 -23 -43 l0 -39 115 0 115 0 0 40 c0 38 -2 40 -30 40 l-30 0 0 295 0
295 -85 0 -85 0 0 -39z"/>
<path fill="#a2462a" d="M30 795 c0 -43 1 -45 30 -45 l30 0 -5 -57 c-3 -32 -10 -131 -15 -220
-5 -90 -12 -167 -15 -173 -3 -5 -15 -10 -26 -10 -16 0 -19 -7 -19 -40 l0 -40
110 0 110 0 0 40 c0 37 -3 41 -29 46 -26 6 -28 9 -25 47 2 23 6 96 10 161 l6
120 67 -175 67 -174 50 -3 51 -3 70 181 70 182 8 -161 c4 -88 4 -165 0 -170
-3 -6 -17 -11 -31 -11 -21 0 -24 -4 -24 -40 l0 -40 120 0 120 0 0 39 c0 35 -3
40 -29 46 l-29 6 -7 102 c-4 56 -7 156 -8 221 l-2 120 25 6 c21 5 25 12 28 48
l3 42 -99 0 -100 0 -55 -147 c-31 -82 -67 -176 -80 -210 l-23 -63 -79 210 -79
210 -98 0 -98 0 0 -45z"/>
<path d="M1340 796 c0 -42 2 -46 25 -46 l25 0 -2 -227 c-3 -228 -3 -228 -25
-231 -19 -3 -23 -10 -23 -43 l0 -39 135 0 135 0 0 39 c0 38 -1 39 -45 45 l-45
7 0 65 0 64 78 0 c82 0 158 26 194 66 50 57 63 167 27 241 -15 30 -35 52 -67
71 -46 26 -52 27 -229 30 l-183 4 0 -46z m345 -86 c20 -19 25 -33 25 -71 0
-79 -52 -118 -157 -119 l-33 0 0 111 0 112 70 -5 c56 -4 76 -10 95 -28z"/>
<path d="M2880 742 c-18 -35 -33 -49 -57 -56 -27 -8 -32 -15 -35 -48 -3 -37
-3 -38 28 -38 l32 0 4 -171 3 -171 32 -28 c40 -36 103 -47 173 -30 27 7 53 17
56 22 4 6 1 27 -6 49 -11 32 -16 37 -31 29 -32 -17 -87 -12 -99 9 -5 11 -10
81 -10 155 l0 136 59 0 59 0 4 45 3 45 -62 0 -63 0 0 50 c0 50 0 50 -32 50
-29 0 -36 -6 -58 -48z"/>
<path d="M2011 686 c-58 -21 -108 -71 -126 -127 -26 -78 -18 -211 18 -271 31
-54 60 -74 127 -90 104 -24 217 31 255 124 39 98 27 245 -27 313 -45 58 -162
82 -247 51z m120 -86 c34 -19 52 -69 52 -150 0 -51 -5 -86 -17 -112 -31 -66
-106 -74 -149 -16 -25 33 -35 158 -18 211 21 63 81 94 132 67z"/>
<path d="M2595 688 c-11 -6 -30 -20 -42 -31 l-23 -20 0 26 0 27 -85 0 -85 0 0
-45 c0 -43 1 -45 29 -45 17 0 31 -6 35 -16 8 -20 8 -258 0 -278 -3 -9 -17 -16
-30 -16 -21 0 -24 -4 -24 -40 l0 -40 130 0 130 0 0 40 0 40 -45 0 -45 0 0 103
c0 129 11 172 51 192 41 22 69 11 69 -26 0 -28 2 -29 45 -29 l45 0 0 75 c0 72
-1 76 -26 85 -34 13 -104 12 -129 -2z"/>
<path d="M3631 686 c-58 -21 -108 -71 -126 -127 -26 -78 -18 -211 18 -271 31
-54 60 -74 127 -90 104 -24 217 31 255 124 39 98 27 245 -27 313 -45 58 -162
82 -247 51z m120 -86 c34 -19 52 -69 52 -150 0 -51 -5 -86 -17 -112 -31 -66
-106 -74 -149 -16 -25 33 -35 158 -18 211 21 63 81 94 132 67z"/>
<path d="M4691 686 c-58 -21 -108 -71 -126 -127 -26 -78 -18 -211 18 -271 31
-54 60 -74 127 -90 104 -24 217 31 255 124 39 98 27 245 -27 313 -45 58 -162
82 -247 51z m120 -86 c34 -19 52 -69 52 -150 0 -51 -5 -86 -17 -112 -31 -66
-106 -74 -149 -16 -25 33 -35 158 -18 211 21 63 81 94 132 67z"/>
<path fill="#a2462a" d="M790 645 c0 -41 2 -45 24 -45 13 0 27 -7 30 -16 3 -9 6 -73 6 -143 0
-117 2 -131 23 -162 32 -48 92 -66 166 -51 30 6 65 22 78 34 l23 21 0 -52 c0
-28 -7 -66 -16 -82 -20 -39 -75 -63 -123 -54 -48 9 -61 21 -61 57 0 29 -1 29
-47 26 l-48 -3 0 -70 0 -70 35 -12 c19 -7 78 -12 130 -12 121 -1 172 21 210
89 25 44 25 48 28 318 l4 272 -91 0 -91 0 0 -44 c0 -41 2 -45 28 -48 l27 -3 0
-113 c0 -112 0 -114 -28 -138 -28 -24 -79 -32 -105 -15 -22 14 -32 79 -32 224
l0 137 -85 0 -85 0 0 -45z"/>
<path d="M4270 645 c0 -41 2 -45 24 -45 13 0 27 -7 30 -16 3 -9 6 -71 6 -139
0 -68 -3 -130 -6 -139 -3 -9 -17 -16 -30 -16 -21 0 -24 -4 -24 -40 l0 -40 115
0 115 0 0 40 c0 38 -2 40 -30 40 l-30 0 0 200 0 200 -85 0 -85 0 0 -45z"/>
</g>
</svg>
